# xmcd
#
# Track frame offsets:
#	150
#	47673
#	85787
#	121713
#	172734
#	213259
#	248534
#	277947
#	312148
#
# Disc length: 4626 seconds
#
# Revision: 0
# Processed by: cddbd v1.5.2PL0 Copyright (c) Steve Scherf et al.
# Submitted via: EasyCDDAExtractor 11.1.0.1
#
DISCID=62121009
DTITLE=Ashford and Simpson - The Warner Bros Years: Hits, Remixes and Rarities
DYEAR=2008
DGENRE=Disco
TTITLE0=Found A Cure (Tom Moulton Mix)
TTITLE1=It Seems To Hang On (Tommy Musto Re-Touch)
TTITLE2=One More Try (Dimitri Re-Edit)
TTITLE3=Bourgie Bourgie (Joe Claussell's Classic Mix)
TTITLE4=Over And Over (Simphouse/M&M Mix)
TTITLE5=Stay Free (Dim's The Missing Mix)
TTITLE6=Love Don't Make It Right (Joey Negro Mix)
TTITLE7=Tried Tested And Found True (Simphouse/M&M Soulful Mix)
TTITLE8=Stay Free (Dim's Club Mix)
EXTD=
EXTT0=
EXTT1=
EXTT2=
EXTT3=
EXTT4=
EXTT5=
EXTT6=
EXTT7=
EXTT8=
PLAYORDER=
